<?xml version="1.0" encoding="UTF-8"?>
<svg xmlns="http://www.w3.org/2000/svg" xmlns:xlink="http://www.w3.org/1999/xlink" viewBox="0 0 30 30" width="48px" height="48px">
<g id="surface80012987">
<path style=" stroke:none;fill-rule:nonzero;fill:rgb(255,255,255);" d="M 0 15 C 0 6.714844 6.714844 0 15 0 C 23.285156 0 30 6.714844 30 15 C 30 23.285156 23.285156 30 15 30 C 6.714844 30 0 23.285156 0 15 Z M 15 29.398438 C 22.953125 29.398438 29.398438 22.953125 29.398438 15 C 29.398438 7.046875 22.953125 0.601562 15 0.601562 C 7.046875 0.601562 0.601562 7.046875 0.601562 15 C 0.601562 22.953125 7.046875 29.398438 15 29.398438 Z M 15 29.398438 "/>
<path style=" stroke:none;fill-rule:nonzero;fill:rgb(255,255,255);fill-opacity:1;" d="M 8.855469 5.269531 L 10.292969 10.464844 L 10.292969 12.957031 L 11.539062 12.957031 L 11.539062 10.464844 L 12.996094 5.269531 L 11.742188 5.269531 L 11.21875 7.632812 C 11.074219 8.324219 10.980469 8.816406 10.9375 9.105469 L 10.898438 9.105469 C 10.835938 8.699219 10.742188 8.203125 10.613281 7.625 L 10.113281 5.269531 Z M 14.449219 7.230469 C 14.027344 7.230469 13.683594 7.3125 13.425781 7.480469 C 13.164062 7.648438 12.976562 7.917969 12.851562 8.285156 C 12.730469 8.652344 12.667969 9.136719 12.667969 9.738281 L 12.667969 10.554688 C 12.667969 11.152344 12.722656 11.632812 12.832031 11.992188 C 12.9375 12.351562 13.117188 12.617188 13.371094 12.789062 C 13.625 12.960938 13.972656 13.046875 14.417969 13.046875 C 14.851562 13.046875 15.199219 12.964844 15.449219 12.792969 C 15.703125 12.625 15.886719 12.363281 16 12 C 16.113281 11.636719 16.167969 11.15625 16.167969 10.554688 L 16.167969 9.738281 C 16.167969 9.136719 16.109375 8.652344 15.996094 8.289062 C 15.878906 7.925781 15.695312 7.65625 15.445312 7.488281 C 15.195312 7.316406 14.863281 7.230469 14.449219 7.230469 Z M 16.824219 7.339844 L 16.824219 11.535156 C 16.824219 12.054688 16.914062 12.4375 17.089844 12.679688 C 17.265625 12.925781 17.542969 13.046875 17.914062 13.046875 C 18.449219 13.046875 18.855469 12.785156 19.121094 12.269531 L 19.148438 12.269531 L 19.261719 12.953125 L 20.25 12.953125 L 20.25 7.339844 L 18.988281 7.339844 L 18.988281 11.800781 C 18.9375 11.902344 18.863281 11.988281 18.761719 12.058594 C 18.660156 12.125 18.554688 12.160156 18.445312 12.160156 C 18.316406 12.160156 18.226562 12.105469 18.171875 11.996094 C 18.117188 11.890625 18.089844 11.714844 18.089844 11.460938 L 18.089844 7.339844 Z M 14.417969 8.101562 C 14.597656 8.101562 14.722656 8.195312 14.792969 8.378906 C 14.863281 8.566406 14.894531 8.859375 14.894531 9.261719 L 14.894531 11.011719 C 14.894531 11.429688 14.859375 11.726562 14.792969 11.910156 C 14.722656 12.09375 14.597656 12.183594 14.421875 12.1875 C 14.246094 12.1875 14.121094 12.09375 14.054688 11.910156 C 13.984375 11.726562 13.953125 11.429688 13.953125 11.011719 L 13.953125 9.261719 C 13.953125 8.859375 13.988281 8.566406 14.058594 8.378906 C 14.128906 8.195312 14.25 8.101562 14.417969 8.101562 Z M 8.113281 14.101562 C 6.996094 14.101562 6.089844 15.007812 6.089844 16.125 L 6.089844 22.605469 C 6.089844 23.722656 6.996094 24.628906 8.113281 24.628906 L 21.886719 24.628906 C 23.003906 24.628906 23.910156 23.722656 23.910156 22.605469 L 23.910156 16.125 C 23.910156 15.007812 23.003906 14.101562 21.886719 14.101562 Z M 15.046875 15.960938 L 16.074219 15.960938 L 16.074219 18.460938 L 16.082031 18.460938 C 16.175781 18.28125 16.308594 18.132812 16.476562 18.023438 C 16.648438 17.914062 16.832031 17.855469 17.027344 17.855469 C 17.28125 17.855469 17.476562 17.925781 17.621094 18.058594 C 17.765625 18.191406 17.871094 18.410156 17.933594 18.707031 C 18 19.007812 18.03125 19.421875 18.03125 19.953125 L 18.03125 20.703125 C 18.03125 21.40625 17.945312 21.925781 17.777344 22.261719 C 17.605469 22.59375 17.339844 22.761719 16.980469 22.761719 C 16.777344 22.761719 16.59375 22.714844 16.429688 22.621094 C 16.265625 22.527344 16.144531 22.402344 16.058594 22.242188 L 16.035156 22.242188 L 15.929688 22.6875 L 15.046875 22.6875 Z M 8.667969 16.203125 L 11.832031 16.203125 L 11.832031 17.0625 L 10.769531 17.0625 L 10.769531 22.6875 L 9.726562 22.6875 L 9.726562 17.0625 L 8.667969 17.0625 Z M 19.953125 17.859375 C 20.320312 17.859375 20.601562 17.925781 20.796875 18.058594 C 20.992188 18.195312 21.132812 18.402344 21.210938 18.6875 C 21.292969 18.96875 21.332031 19.363281 21.332031 19.863281 L 21.332031 20.675781 L 19.546875 20.675781 L 19.546875 20.914062 C 19.546875 21.21875 19.554688 21.445312 19.574219 21.597656 C 19.59375 21.75 19.628906 21.863281 19.6875 21.929688 C 19.742188 22 19.832031 22.035156 19.949219 22.035156 C 20.109375 22.035156 20.21875 21.972656 20.277344 21.851562 C 20.335938 21.726562 20.371094 21.519531 20.375 21.230469 L 21.292969 21.285156 C 21.296875 21.324219 21.300781 21.382812 21.300781 21.457031 C 21.300781 21.894531 21.183594 22.222656 20.941406 22.4375 C 20.703125 22.652344 20.363281 22.761719 19.925781 22.761719 C 19.398438 22.761719 19.03125 22.597656 18.820312 22.269531 C 18.605469 21.9375 18.503906 21.425781 18.503906 20.738281 L 18.503906 19.910156 C 18.503906 19.199219 18.613281 18.679688 18.832031 18.351562 C 19.050781 18.023438 19.425781 17.859375 19.953125 17.859375 Z M 13.339844 17.949219 L 14.40625 17.949219 L 14.40625 22.6875 L 13.566406 22.6875 L 13.476562 22.109375 L 13.453125 22.109375 C 13.226562 22.546875 12.886719 22.765625 12.433594 22.765625 C 12.117188 22.765625 11.886719 22.664062 11.734375 22.457031 C 11.585938 22.253906 11.511719 21.929688 11.511719 21.492188 L 11.511719 17.949219 L 12.582031 17.949219 L 12.582031 21.429688 C 12.582031 21.640625 12.605469 21.792969 12.652344 21.882812 C 12.699219 21.972656 12.773438 22.015625 12.882812 22.015625 C 12.976562 22.015625 13.0625 21.988281 13.148438 21.929688 C 13.234375 21.875 13.296875 21.800781 13.339844 21.714844 Z M 19.933594 18.582031 C 19.820312 18.582031 19.734375 18.613281 19.679688 18.679688 C 19.625 18.746094 19.589844 18.855469 19.570312 19.007812 C 19.554688 19.160156 19.546875 19.390625 19.546875 19.699219 L 19.546875 20.039062 L 20.324219 20.039062 L 20.324219 19.699219 C 20.324219 19.394531 20.316406 19.167969 20.296875 19.007812 C 20.273438 18.851562 20.238281 18.742188 20.183594 18.675781 C 20.128906 18.613281 20.046875 18.582031 19.933594 18.582031 Z M 16.546875 18.613281 C 16.445312 18.613281 16.347656 18.65625 16.261719 18.738281 C 16.171875 18.820312 16.113281 18.925781 16.074219 19.054688 L 16.074219 21.746094 C 16.121094 21.828125 16.183594 21.890625 16.257812 21.929688 C 16.332031 21.972656 16.414062 21.996094 16.5 21.996094 C 16.613281 21.996094 16.703125 21.953125 16.773438 21.871094 C 16.839844 21.789062 16.886719 21.648438 16.914062 21.453125 C 16.941406 21.257812 16.957031 20.988281 16.957031 20.640625 L 16.957031 20.03125 C 16.957031 19.660156 16.945312 19.375 16.921875 19.171875 C 16.898438 18.972656 16.855469 18.828125 16.796875 18.742188 C 16.738281 18.660156 16.65625 18.613281 16.546875 18.613281 Z M 16.546875 18.613281 "/>
</g>
</svg>
