<?xml version="1.0" encoding="UTF-8"?>
<svg xmlns="http://www.w3.org/2000/svg" xmlns:xlink="http://www.w3.org/1999/xlink" viewBox="0 0 30 30" width="48px" height="48px">
<g id="surface79980829">
<path style=" stroke:none;fill-rule:nonzero;fill:rgb(100%,100%,100%);fill-opacity:1;" d="M 11.851562 15 C 11.851562 13.261719 13.261719 11.851562 15 11.851562 C 16.738281 11.851562 18.148438 13.261719 18.148438 15 C 18.148438 16.738281 16.738281 18.148438 15 18.148438 C 13.261719 18.148438 11.851562 16.738281 11.851562 15 Z M 15 17.550781 C 16.410156 17.550781 17.550781 16.410156 17.550781 15 C 17.550781 13.589844 16.410156 12.449219 15 12.449219 C 13.589844 12.449219 12.449219 13.589844 12.449219 15 C 12.449219 16.410156 13.589844 17.550781 15 17.550781 Z M 15 17.550781 "/>
<path style=" stroke:none;fill-rule:nonzero;fill:rgb(255,255,255);fill-opacity:1;" d="M 15 1.738281 C 7.6875 1.738281 1.738281 7.6875 1.738281 15 C 1.738281 22.3125 7.6875 28.261719 15 28.261719 C 22.3125 28.261719 28.261719 22.3125 28.261719 15 C 28.261719 7.6875 22.3125 1.738281 15 1.738281 Z M 11.597656 5.820312 L 18.398438 5.820312 C 21.585938 5.820312 24.179688 8.414062 24.179688 11.597656 L 24.179688 18.398438 C 24.179688 21.585938 21.585938 24.179688 18.402344 24.179688 L 11.601562 24.179688 C 8.414062 24.179688 5.820312 21.585938 5.820312 18.402344 L 5.820312 11.601562 C 5.820312 8.414062 8.414062 5.820312 11.597656 5.820312 Z M 11.597656 7.859375 C 9.539062 7.859375 7.859375 9.539062 7.859375 11.601562 L 7.859375 18.402344 C 7.859375 20.460938 9.539062 22.140625 11.601562 22.140625 L 18.402344 22.140625 C 20.460938 22.140625 22.140625 20.460938 22.140625 18.398438 L 22.140625 11.597656 C 22.140625 9.539062 20.460938 7.859375 18.398438 7.859375 Z M 19.761719 9.558594 C 20.136719 9.558594 20.441406 9.863281 20.441406 10.238281 C 20.441406 10.613281 20.136719 10.921875 19.761719 10.921875 C 19.386719 10.921875 19.078125 10.613281 19.078125 10.238281 C 19.078125 9.863281 19.386719 9.558594 19.761719 9.558594 Z M 15 9.898438 C 17.8125 9.898438 20.101562 12.1875 20.101562 15 C 20.101562 17.8125 17.8125 20.101562 15 20.101562 C 12.1875 20.101562 9.898438 17.8125 9.898438 15 C 9.898438 12.1875 12.1875 9.898438 15 9.898438 Z M 15 11.941406 C 13.308594 11.941406 11.941406 13.308594 11.941406 15 C 11.941406 16.691406 13.308594 18.058594 15 18.058594 C 16.691406 18.058594 18.058594 16.691406 18.058594 15 C 18.058594 13.308594 16.691406 11.941406 15 11.941406 Z M 15 11.941406 "/>
</g>
</svg>
