<?xml version="1.0" ?><!DOCTYPE svg  PUBLIC '-//W3C//DTD SVG 1.1//EN'  'http://www.w3.org/Graphics/SVG/1.1/DTD/svg11.dtd'><svg enable-background="new 0 0 128 128" id="Слой_1" version="1.1" viewBox="0 0 128 128" xml:space="preserve" xmlns="http://www.w3.org/2000/svg" xmlns:xlink="http://www.w3.org/1999/xlink"><g><path d="M110,23.2L88.8,2H16v124h94V23.2z M90,8.8L103.2,22H90V8.8z M20,122V6h66v20h20v96H20z" fill="#fff"/><path d="M88,66.7l4.4-4.4L80.8,50.5L76.3,55c-1.3-0.7-2.7-1.3-4.1-1.7V47H55.8v6.3c-1.4,0.5-2.8,1-4.1,1.7l-4.4-4.4   L35.5,62.2l4.4,4.4c-0.7,1.3-1.3,2.7-1.7,4.1H32v16.5h6.3c0.5,1.4,1,2.8,1.7,4.1l-4.4,4.4l11.7,11.7l4.4-4.4   c1.3,0.7,2.7,1.3,4.1,1.7v6.3h16.5v-6.3c1.4-0.5,2.8-1,4.1-1.7l4.4,4.4l11.7-11.7L88,91.3c0.7-1.3,1.3-2.7,1.7-4.1H96V70.8h-6.3   C89.3,69.3,88.7,68,88,66.7z M92,83.3h-5.3l-0.4,1.5c-0.5,2.1-1.4,4.1-2.5,5.9L83,92l3.8,3.8l-6,6L77,98l-1.3,0.8   c-1.9,1.1-3.9,1.9-5.9,2.5l-1.5,0.4v5.3h-8.5v-5.3l-1.5-0.4c-2.1-0.5-4.1-1.4-5.9-2.5L51,98l-3.8,3.8l-6-6L45,92l-0.8-1.3   c-1.1-1.9-1.9-3.9-2.5-5.9l-0.4-1.5H36v-8.5h5.3l0.4-1.5c0.5-2.1,1.4-4.1,2.5-5.9L45,66l-3.8-3.8l6-6L51,60l1.3-0.8   c1.9-1.1,3.9-1.9,5.9-2.5l1.5-0.4V51h8.5v5.3l1.5,0.4c2.1,0.5,4.1,1.4,5.9,2.5L77,60l3.8-3.8l6,6L83,66l0.8,1.3   c1.1,1.9,1.9,3.9,2.5,5.9l0.4,1.5H92V83.3z" fill="#fff"/><path d="M64,64.5c-8,0-14.5,6.5-14.5,14.5S56,93.5,64,93.5S78.5,87,78.5,79S72,64.5,64,64.5z M64,89.5   c-5.8,0-10.5-4.7-10.5-10.5S58.2,68.5,64,68.5c5.8,0,10.5,4.7,10.5,10.5S69.8,89.5,64,89.5z" fill="#fff"/></g></svg>